<?xml version="1.0" encoding="utf-8"?>
<!DOCTYPE svg PUBLIC "-//W3C//DTD SVG 1.1//EN" "http://www.w3.org/Graphics/SVG/1.1/DTD/svg11.dtd">
<svg version="1.1" id="Layer_1" xmlns="http://www.w3.org/2000/svg" xmlns:xlink="http://www.w3.org/1999/xlink" x="0px" y="0px"
	 width="55px" height="55px" viewBox="0 0 55 55" style="enable-background:new 0 0 55 55;" xml:space="preserve">
<g>
	<path d="M46.48,24.514c0,0,0,0-1.082,1.083c-2.164,2.164-3.246,0-3.246,0S34.197,14.03,31.329,10.444c-4.329-5.411-8.658,0-8.658,0
		L4.271,28.844l2.165,2.164c0,0,0,0,1.083-1.082c2.164-2.165,4.329,0,4.329,0s8.635,11.992,11.391,15.666
		c3.247,4.329,7.576,0,7.576,0l18.913-17.831L46.48,24.514z M21,23h12v2H21V23z M33,34H21v-2h12V34z M34,31H20v-2h14V31z M34,28H20
		v-2h14V28z"/>
</g>
</svg>
